<svg width="35" height="33" viewBox="0 0 35 33" fill="none" xmlns="http://www.w3.org/2000/svg">
<path d="M17.5 1C14.8744 1 12.3563 1.97983 10.4996 3.72393C8.64304 5.46803 7.60001 7.83353 7.60001 10.3001C7.60001 12.4995 8.09831 13.9395 9.45626 15.5313L17.5 24.2502L25.5438 15.5313C26.9017 13.9395 27.4 12.4995 27.4 10.3001C27.4 7.83353 26.357 5.46803 24.5004 3.72393C22.6438 1.97983 20.1257 1 17.5 1Z" stroke="black" stroke-width="2" stroke-linecap="round" stroke-linejoin="round"/>
<path d="M5.95 21.3718C2.89585 22.4987 1 24.0657 1 25.8002C1 29.2257 8.38705 32.0002 17.5 32.0002C26.6129 32.0002 34 29.2257 34 25.8002C34 24.0657 32.1041 22.4987 29.05 21.3718" stroke="black" stroke-width="2" stroke-linecap="round" stroke-linejoin="round"/>
<path d="M17.5 11.85C18.4113 11.85 19.15 11.1561 19.15 10.3C19.15 9.44396 18.4113 8.75 17.5 8.75C16.5887 8.75 15.85 9.44396 15.85 10.3C15.85 11.1561 16.5887 11.85 17.5 11.85Z" stroke="black" stroke-width="2" stroke-linecap="round" stroke-linejoin="round"/>
</svg>
