<svg width="40" height="40" viewBox="0 0 40 40" fill="none" xmlns="http://www.w3.org/2000/svg">
<path d="M14.1666 31.6667C13.6721 31.6667 13.1888 31.8133 12.7777 32.088C12.3665 32.3627 12.0461 32.7531 11.8569 33.21C11.6677 33.6668 11.6182 34.1694 11.7146 34.6544C11.8111 35.1393 12.0492 35.5848 12.3988 35.9344C12.7484 36.2841 13.1939 36.5222 13.6789 36.6186C14.1638 36.7151 14.6665 36.6656 15.1233 36.4764C15.5801 36.2871 15.9706 35.9667 16.2453 35.5556C16.52 35.1445 16.6666 34.6611 16.6666 34.1667C16.6666 33.5036 16.4032 32.8677 15.9344 32.3989C15.4655 31.9301 14.8296 31.6667 14.1666 31.6667ZM31.6666 26.6667H11.6666C11.2246 26.6667 10.8006 26.4911 10.4881 26.1785C10.1755 25.8659 9.99992 25.442 9.99992 25C9.99992 24.558 10.1755 24.134 10.4881 23.8215C10.8006 23.5089 11.2246 23.3333 11.6666 23.3333H25.8186C26.9043 23.3298 27.9596 22.9746 28.8264 22.3208C29.6933 21.667 30.3249 20.75 30.6266 19.707L33.269 10.4582C33.3399 10.2101 33.3522 9.949 33.305 9.69537C33.2579 9.44175 33.1525 9.20253 32.9971 8.99655C32.8418 8.79058 32.6408 8.62347 32.4099 8.50838C32.179 8.3933 31.9246 8.33337 31.6666 8.33333H11.2317C10.8867 7.36226 10.2507 6.52118 9.41029 5.92469C8.56993 5.3282 7.5661 5.0053 6.53557 5H4.99992C4.55789 5 4.13397 5.17559 3.82141 5.48816C3.50885 5.80072 3.33325 6.22464 3.33325 6.66667C3.33325 7.10869 3.50885 7.53262 3.82141 7.84518C4.13397 8.15774 4.55789 8.33333 4.99992 8.33333H6.53557C6.89737 8.3346 7.24903 8.45302 7.5379 8.67088C7.82676 8.88874 8.03728 9.19431 8.13794 9.54183L8.39714 10.4497L8.39753 10.4582L11.1319 20.0285C9.85952 20.1654 8.68804 20.7849 7.85869 21.7595C7.02935 22.7342 6.60528 23.9897 6.6738 25.2676C6.74232 26.5455 7.29821 27.7485 8.22702 28.6289C9.15583 29.5092 10.3868 30 11.6666 30H31.6666C32.1086 30 32.5325 29.8244 32.8451 29.5118C33.1577 29.1993 33.3333 28.7754 33.3333 28.3333C33.3333 27.8913 33.1577 27.4674 32.8451 27.1548C32.5325 26.8423 32.1086 26.6667 31.6666 26.6667ZM29.4571 11.6667L27.4218 18.7907C27.3212 19.1385 27.1107 19.4443 26.8216 19.6624C26.5326 19.8804 26.1807 19.9989 25.8186 20H14.5906L14.1657 18.513L12.2106 11.6667H29.4571ZM27.4999 31.6667C27.0055 31.6667 26.5221 31.8133 26.111 32.088C25.6999 32.3627 25.3794 32.7531 25.1902 33.21C25.001 33.6668 24.9515 34.1694 25.048 34.6544C25.1444 35.1393 25.3825 35.5848 25.7322 35.9344C26.0818 36.2841 26.5272 36.5222 27.0122 36.6186C27.4971 36.7151 27.9998 36.6656 28.4566 36.4764C28.9134 36.2871 29.3039 35.9667 29.5786 35.5556C29.8533 35.1445 29.9999 34.6611 29.9999 34.1667C29.9999 33.5036 29.7365 32.8677 29.2677 32.3989C28.7988 31.9301 28.163 31.6667 27.4999 31.6667Z" fill="#3C6255"/>
</svg>
