<svg width="40" height="40" viewBox="0 0 40 40" fill="none" xmlns="http://www.w3.org/2000/svg">
<path d="M34.3501 31.9833C35.3946 30.5832 36.1114 28.9665 36.4475 27.2524C36.7837 25.5382 36.7307 23.7705 36.2924 22.0796C35.854 20.3887 35.0416 18.8179 33.9151 17.4829C32.7885 16.148 31.3766 15.083 29.7834 14.3667C29.4364 12.3702 28.6389 10.479 27.4515 8.83695C26.2641 7.19487 24.718 5.84505 22.9307 4.89005C21.1434 3.93505 19.1619 3.4 17.1369 3.32556C15.1118 3.25112 13.0964 3.63924 11.2438 4.46043C9.39125 5.28162 7.75022 6.51429 6.44543 8.06475C5.14064 9.61522 4.20642 11.4427 3.71376 13.4083C3.2211 15.374 3.18296 17.426 3.60224 19.4086C4.02151 21.3912 4.88717 23.2521 6.13344 24.85L3.81677 27.15C3.58551 27.3844 3.42885 27.682 3.36656 28.0053C3.30427 28.3286 3.33914 28.6631 3.46677 28.9667C3.59181 29.271 3.80414 29.5316 4.077 29.7155C4.34987 29.8994 4.67106 29.9984 5.00011 30H14.4834C15.4279 31.991 16.9168 33.6738 18.778 34.8537C20.6392 36.0335 22.7965 36.6621 25.0001 36.6667H35.0001C35.3292 36.665 35.6503 36.566 35.9232 36.3821C36.1961 36.1982 36.4084 35.9377 36.5334 35.6333C36.6611 35.3298 36.6959 34.9953 36.6337 34.672C36.5714 34.3487 36.4147 34.051 36.1834 33.8167L34.3501 31.9833ZM13.3334 25C13.3357 25.5581 13.3803 26.1153 13.4668 26.6667H9.01677L9.60011 26.1C9.75632 25.9451 9.88031 25.7607 9.96493 25.5576C10.0495 25.3545 10.0931 25.1367 10.0931 24.9167C10.0931 24.6966 10.0495 24.4788 9.96493 24.2757C9.88031 24.0726 9.75632 23.8883 9.60011 23.7333C8.66604 22.8095 7.92552 21.7087 7.42186 20.4954C6.9182 19.282 6.6615 17.9804 6.66677 16.6667C6.66677 14.0145 7.72034 11.471 9.59571 9.5956C11.4711 7.72023 14.0146 6.66666 16.6668 6.66666C18.7362 6.65423 20.7576 7.29064 22.4467 8.48644C24.1357 9.68224 25.4076 11.3773 26.0834 13.3333C25.7168 13.3333 25.3668 13.3333 25.0001 13.3333C21.9059 13.3333 18.9385 14.5625 16.7505 16.7504C14.5626 18.9383 13.3334 21.9058 13.3334 25ZM30.9001 33.3333L30.9834 33.4167H25.0001C23.0723 33.4132 21.2054 32.7415 19.7173 31.516C18.2292 30.2905 17.2121 28.5869 16.8391 26.6956C16.4661 24.8042 16.7605 22.8421 17.6719 21.1434C18.5833 19.4447 20.0555 18.1145 21.8377 17.3795C23.6199 16.6445 25.6017 16.5501 27.4457 17.1124C29.2896 17.6747 30.8816 18.8589 31.9503 20.4632C33.0191 22.0676 33.4986 23.9929 33.3071 25.9112C33.1156 27.8294 32.265 29.6219 30.9001 30.9833C30.5861 31.291 30.4064 31.7104 30.4001 32.15C30.401 32.3705 30.4457 32.5886 30.5315 32.7918C30.6173 32.9949 30.7426 33.179 30.9001 33.3333Z" fill="#3C6255"/>
</svg>
