<svg width="40" height="40" viewBox="0 0 40 40" fill="none" xmlns="http://www.w3.org/2000/svg">
<path d="M37.1429 20C37.1429 22.3214 36.689 24.5387 35.7813 26.6518C34.8735 28.7649 33.6533 30.5878 32.1206 32.1205C30.5878 33.6533 28.7649 34.8735 26.6518 35.7813C24.5387 36.689 22.3215 37.1429 20 37.1429C17.4405 37.1429 15.0075 36.6034 12.7009 35.5246C10.3944 34.4457 8.43009 32.9241 6.80807 30.9598C6.7039 30.811 6.65554 30.6436 6.66298 30.4576C6.67042 30.2716 6.73367 30.1191 6.85271 30L9.91075 26.9196C10.0596 26.7857 10.2456 26.7188 10.4688 26.7188C10.7069 26.7485 10.878 26.8378 10.9822 26.9866C12.0685 28.4003 13.4003 29.4941 14.9777 30.2679C16.5551 31.0417 18.2292 31.4286 20 31.4286C21.5477 31.4286 23.0246 31.1272 24.4308 30.5246C25.8371 29.9219 27.0536 29.1071 28.0804 28.0804C29.1072 27.0536 29.9219 25.8371 30.5246 24.4308C31.1273 23.0246 31.4286 21.5476 31.4286 20C31.4286 18.4524 31.1273 16.9754 30.5246 15.5692C29.9219 14.163 29.1072 12.9464 28.0804 11.9196C27.0536 10.8929 25.8371 10.0781 24.4308 9.47545C23.0246 8.87277 21.5477 8.57143 20 8.57143C18.5417 8.57143 17.1429 8.83557 15.8036 9.36384C14.4643 9.89212 13.2738 10.6473 12.2322 11.6295L15.2902 14.7098C15.7515 15.1563 15.8557 15.6696 15.6027 16.25C15.3497 16.8452 14.9107 17.1429 14.2857 17.1429H4.28575C3.89884 17.1429 3.56402 17.0015 3.28128 16.7188C2.99855 16.436 2.85718 16.1012 2.85718 15.7143V5.71429C2.85718 5.08929 3.1548 4.6503 3.75003 4.39733C4.33039 4.14435 4.84378 4.24852 5.29021 4.70983L8.192 7.58929C9.78426 6.08631 11.6035 4.92188 13.6496 4.09599C15.6957 3.27009 17.8125 2.85715 20 2.85715C22.3215 2.85715 24.5387 3.31102 26.6518 4.21875C28.7649 5.12649 30.5878 6.34673 32.1206 7.87947C33.6533 9.41221 34.8735 11.2351 35.7813 13.3482C36.689 15.4613 37.1429 17.6786 37.1429 20ZM22.8572 13.5714V23.5714C22.8572 23.7798 22.7902 23.9509 22.6563 24.0848C22.5224 24.2188 22.3512 24.2857 22.1429 24.2857H15C14.7917 24.2857 14.6206 24.2188 14.4866 24.0848C14.3527 23.9509 14.2857 23.7798 14.2857 23.5714V22.1429C14.2857 21.9345 14.3527 21.7634 14.4866 21.6295C14.6206 21.4955 14.7917 21.4286 15 21.4286H20V13.5714C20 13.3631 20.067 13.192 20.2009 13.058C20.3349 12.9241 20.506 12.8571 20.7143 12.8571H22.1429C22.3512 12.8571 22.5224 12.9241 22.6563 13.058C22.7902 13.192 22.8572 13.3631 22.8572 13.5714Z" fill="#3C6255"/>
</svg>
