<svg width="30" height="30" viewBox="0 0 30 30" fill="none" xmlns="http://www.w3.org/2000/svg">
<path d="M13.5938 24.125L5.34377 15.875C5.21877 15.75 5.13002 15.6146 5.07752 15.4688C5.02502 15.3229 4.99919 15.1667 5.00002 15C5.00002 14.8333 5.02627 14.6771 5.07877 14.5313C5.13127 14.3854 5.2196 14.25 5.34377 14.125L13.5938 5.87501C13.8229 5.64585 14.1096 5.52626 14.4538 5.51626C14.7979 5.50626 15.0946 5.62585 15.3438 5.87501C15.5938 6.10418 15.7242 6.39085 15.735 6.73501C15.7459 7.07918 15.6259 7.37585 15.375 7.62501L9.25002 13.75H23.2188C23.5729 13.75 23.87 13.87 24.11 14.11C24.35 14.35 24.4696 14.6467 24.4688 15C24.4688 15.3542 24.3492 15.6513 24.11 15.8913C23.8709 16.1313 23.5738 16.2508 23.2188 16.25H9.25002L15.375 22.375C15.6042 22.6042 15.7242 22.8958 15.735 23.25C15.7459 23.6042 15.6259 23.8958 15.375 24.125C15.1459 24.375 14.8542 24.5 14.5 24.5C14.1459 24.5 13.8438 24.375 13.5938 24.125Z" fill="black"/>
</svg>
