<svg width="41" height="41" viewBox="0 0 41 41" fill="none" xmlns="http://www.w3.org/2000/svg">
<path d="M10.25 37.5833C9.31043 37.5833 8.5058 37.2485 7.83614 36.5788C7.16647 35.9092 6.83221 35.1051 6.83335 34.1667V17.0833C6.83335 16.1438 7.16818 15.3391 7.83785 14.6695C8.50751 13.9998 9.31157 13.6655 10.25 13.6667H11.9583V10.25C11.9583 7.88681 12.7914 5.87211 14.4576 4.20592C16.1238 2.53972 18.138 1.70719 20.5 1.70833C22.8632 1.70833 24.8779 2.54143 26.5441 4.20763C28.2103 5.87382 29.0428 7.88794 29.0417 10.25V13.6667H30.75C31.6896 13.6667 32.4942 14.0015 33.1639 14.6712C33.8336 15.3408 34.1678 16.1449 34.1667 17.0833V34.1667C34.1667 35.1063 33.8319 35.9109 33.1622 36.5805C32.4925 37.2502 31.6885 37.5845 30.75 37.5833H10.25ZM20.5 29.0417C21.4396 29.0417 22.2442 28.7068 22.9139 28.0372C23.5836 27.3675 23.9178 26.5634 23.9167 25.625C23.9167 24.6854 23.5818 23.8808 22.9122 23.2111C22.2425 22.5415 21.4385 22.2072 20.5 22.2083C19.5604 22.2083 18.7558 22.5432 18.0861 23.2128C17.4165 23.8825 17.0822 24.6866 17.0833 25.625C17.0833 26.5646 17.4182 27.3692 18.0878 28.0389C18.7575 28.7085 19.5616 29.0428 20.5 29.0417ZM15.375 13.6667H25.625V10.25C25.625 8.82639 25.1268 7.61632 24.1302 6.61979C23.1337 5.62326 21.9236 5.125 20.5 5.125C19.0764 5.125 17.8663 5.62326 16.8698 6.61979C15.8733 7.61632 15.375 8.82639 15.375 10.25V13.6667Z" fill="black"/>
</svg>
