<svg width="154" height="37" viewBox="0 0 154 37" fill="none" xmlns="http://www.w3.org/2000/svg">
<path d="M49.62 17.21H59.31V21.8H49.62V17.21ZM50.04 29H44.1V8H60.57V12.59H50.04V29ZM70.8865 29.27C69.1065 29.27 67.5265 28.91 66.1465 28.19C64.7665 27.47 63.6765 26.48 62.8765 25.22C62.0965 23.94 61.7065 22.48 61.7065 20.84C61.7065 19.2 62.0965 17.75 62.8765 16.49C63.6765 15.23 64.7665 14.25 66.1465 13.55C67.5265 12.83 69.1065 12.47 70.8865 12.47C72.6665 12.47 74.2465 12.83 75.6265 13.55C77.0265 14.25 78.1165 15.23 78.8965 16.49C79.6765 17.75 80.0665 19.2 80.0665 20.84C80.0665 22.48 79.6765 23.94 78.8965 25.22C78.1165 26.48 77.0265 27.47 75.6265 28.19C74.2465 28.91 72.6665 29.27 70.8865 29.27ZM70.8865 24.74C71.5465 24.74 72.1265 24.59 72.6265 24.29C73.1465 23.99 73.5565 23.55 73.8565 22.97C74.1565 22.37 74.3065 21.66 74.3065 20.84C74.3065 20.02 74.1565 19.33 73.8565 18.77C73.5565 18.19 73.1465 17.75 72.6265 17.45C72.1265 17.15 71.5465 17 70.8865 17C70.2465 17 69.6665 17.15 69.1465 17.45C68.6465 17.75 68.2365 18.19 67.9165 18.77C67.6165 19.33 67.4665 20.02 67.4665 20.84C67.4665 21.66 67.6165 22.37 67.9165 22.97C68.2365 23.55 68.6465 23.99 69.1465 24.29C69.6665 24.59 70.2465 24.74 70.8865 24.74ZM82.707 29V12.74H88.137V17.48L87.327 16.13C87.807 14.91 88.587 14 89.667 13.4C90.747 12.78 92.057 12.47 93.597 12.47V17.6C93.337 17.56 93.107 17.54 92.907 17.54C92.727 17.52 92.527 17.51 92.307 17.51C91.147 17.51 90.207 17.83 89.487 18.47C88.767 19.09 88.407 20.11 88.407 21.53V29H82.707ZM103.707 29.27C101.627 29.27 100.007 28.76 98.8472 27.74C97.6872 26.7 97.1072 25.14 97.1072 23.06V9.11H102.807V23C102.807 23.58 102.967 24.04 103.287 24.38C103.607 24.7 104.017 24.86 104.517 24.86C105.197 24.86 105.777 24.69 106.257 24.35L107.667 28.34C107.187 28.66 106.597 28.89 105.897 29.03C105.197 29.19 104.467 29.27 103.707 29.27ZM94.7372 17.6V13.34H106.527V17.6H94.7372ZM109.865 29V12.74H115.565V29H109.865ZM112.715 10.94C111.675 10.94 110.835 10.65 110.195 10.07C109.555 9.49 109.235 8.77 109.235 7.91C109.235 7.05 109.555 6.33 110.195 5.75C110.835 5.17 111.675 4.88 112.715 4.88C113.755 4.88 114.595 5.16 115.235 5.72C115.875 6.26 116.195 6.96 116.195 7.82C116.195 8.72 115.875 9.47 115.235 10.07C114.615 10.65 113.775 10.94 112.715 10.94ZM127.579 29.27C125.779 29.27 124.169 28.91 122.749 28.19C121.349 27.47 120.249 26.48 119.449 25.22C118.649 23.94 118.249 22.48 118.249 20.84C118.249 19.2 118.649 17.75 119.449 16.49C120.249 15.23 121.349 14.25 122.749 13.55C124.169 12.83 125.779 12.47 127.579 12.47C129.419 12.47 131.009 12.86 132.349 13.64C133.689 14.42 134.639 15.52 135.199 16.94L130.789 19.19C130.409 18.43 129.939 17.88 129.379 17.54C128.819 17.18 128.209 17 127.549 17C126.889 17 126.289 17.15 125.749 17.45C125.209 17.75 124.779 18.19 124.459 18.77C124.159 19.33 124.009 20.02 124.009 20.84C124.009 21.68 124.159 22.39 124.459 22.97C124.779 23.55 125.209 23.99 125.749 24.29C126.289 24.59 126.889 24.74 127.549 24.74C128.209 24.74 128.819 24.57 129.379 24.23C129.939 23.87 130.409 23.31 130.789 22.55L135.199 24.8C134.639 26.22 133.689 27.32 132.349 28.1C131.009 28.88 129.419 29.27 127.579 29.27Z" fill="#40513B"/>
<path d="M143.796 29.3C142.316 29.3 140.866 29.09 139.446 28.67C138.046 28.23 136.866 27.63 135.906 26.87L137.556 23.84C138.316 24.46 139.236 24.96 140.316 25.34C141.416 25.72 142.556 25.91 143.736 25.91C145.116 25.91 146.196 25.62 146.976 25.04C147.776 24.46 148.176 23.68 148.176 22.7C148.176 22.04 148.006 21.46 147.666 20.96C147.346 20.46 146.766 20.08 145.926 19.82C145.106 19.56 143.976 19.43 142.536 19.43H137.466L138.546 8H150.876V11.27H139.986L142.026 9.41L141.216 17.96L139.176 16.13H143.406C145.486 16.13 147.156 16.41 148.416 16.97C149.696 17.51 150.626 18.27 151.206 19.25C151.806 20.21 152.106 21.31 152.106 22.55C152.106 23.77 151.806 24.89 151.206 25.91C150.606 26.93 149.686 27.75 148.446 28.37C147.226 28.99 145.676 29.3 143.796 29.3Z" fill="#EAE7B1"/>
<path d="M11.3275 13.4125L12.7909 3.70001H5.17998L1.99983 12.025C1.90178 12.321 1.84998 12.6281 1.84998 12.95C1.84998 14.9924 3.97748 16.65 6.60633 16.65C9.02983 16.65 11.0334 15.2366 11.3275 13.4125ZM18.5 16.65C21.127 16.65 23.2563 14.9924 23.2563 12.95C23.2563 12.8742 23.2508 12.7983 23.2471 12.7262L22.3054 3.70001H14.6945L13.751 12.7188C13.7473 12.7946 13.7436 12.8705 13.7436 12.95C13.7436 14.9924 15.873 16.65 18.5 16.65ZM27.75 18.5851V25.9H9.24998V18.5962C8.43968 18.8885 7.54798 19.055 6.60633 19.055C6.24558 19.055 5.89593 19.0125 5.54998 18.9644V30.71C5.54998 32.1345 6.71363 33.3 8.13628 33.3H28.86C30.2845 33.3 31.45 32.1327 31.45 30.71V18.9662C31.1003 19.0199 30.7474 19.0502 30.3936 19.0569C29.4916 19.056 28.5967 18.8963 27.75 18.5851ZM35.002 12.025L31.8181 3.70001H24.2091L25.6706 13.3977C25.9555 15.2292 27.959 16.65 30.3936 16.65C33.0206 16.65 35.15 14.9924 35.15 12.95C35.15 12.6281 35.0982 12.321 35.002 12.025Z" fill="#40513B"/>
</svg>
