<svg width="30" height="30" viewBox="0 0 30 30" fill="none" xmlns="http://www.w3.org/2000/svg">
<path d="M21.875 26.25H23.125V23.125H26.25V21.875H23.125V18.75H21.875V21.875H18.75V23.125H21.875V26.25ZM22.5 28.75C20.7708 28.75 19.2967 28.1404 18.0775 26.9213C16.8583 25.7021 16.2492 24.2283 16.25 22.5C16.25 20.7708 16.8596 19.2967 18.0788 18.0775C19.2979 16.8583 20.7717 16.2492 22.5 16.25C24.2292 16.25 25.7033 16.8596 26.9225 18.0788C28.1417 19.2979 28.7508 20.7717 28.75 22.5C28.75 24.2292 28.1404 25.7033 26.9213 26.9225C25.7021 28.1417 24.2283 28.7508 22.5 28.75ZM8.75 11.25H21.25V8.75H8.75V11.25ZM14.5938 26.25H6.25C5.5625 26.25 4.97375 26.005 4.48375 25.515C3.99375 25.025 3.74917 24.4367 3.75 23.75V6.25C3.75 5.5625 3.995 4.97375 4.485 4.48375C4.975 3.99375 5.56334 3.74917 6.25 3.75H23.75C24.4375 3.75 25.0263 3.995 25.5163 4.485C26.0063 4.975 26.2508 5.56334 26.25 6.25V14.625C25.6458 14.3333 25.0363 14.1146 24.4213 13.9688C23.8063 13.8229 23.1658 13.75 22.5 13.75C22.2708 13.75 22.0571 13.755 21.8588 13.765C21.6604 13.775 21.4575 13.8013 21.25 13.8438V13.75H8.75V16.25H16.4063C16.0313 16.6042 15.6925 16.9896 15.39 17.4063C15.0875 17.8229 14.8221 18.2708 14.5938 18.75H8.75V21.25H13.8438C13.8021 21.4583 13.7758 21.6617 13.765 21.86C13.7542 22.0583 13.7492 22.2717 13.75 22.5C13.75 23.1875 13.8125 23.8283 13.9375 24.4225C14.0625 25.0167 14.2813 25.6258 14.5938 26.25Z" fill="black"/>
</svg>
