<svg width="40" height="40" viewBox="0 0 40 40" fill="none" xmlns="http://www.w3.org/2000/svg">
<g clip-path="url(#clip0_53_983)">
<path d="M19.9999 3.33337C16.7036 3.33337 13.4812 4.31086 10.7404 6.14221C7.9996 7.97357 5.86339 10.5765 4.60193 13.622C3.34047 16.6674 3.01042 20.0185 3.6535 23.2515C4.29659 26.4846 5.88394 29.4543 8.21481 31.7852C10.5457 34.116 13.5154 35.7034 16.7484 36.3465C19.9814 36.9896 23.3325 36.6595 26.378 35.398C29.4234 34.1366 32.0264 32.0004 33.8577 29.2595C35.6891 26.5187 36.6666 23.2964 36.6666 20C36.6666 17.8113 36.2355 15.6441 35.3979 13.622C34.5603 11.5999 33.3327 9.76257 31.785 8.21493C30.2374 6.66728 28.4001 5.43963 26.378 4.60205C24.3559 3.76447 22.1886 3.33337 19.9999 3.33337ZM24.9999 21.6667H21.6666V25C21.6666 25.4421 21.491 25.866 21.1784 26.1786C20.8659 26.4911 20.442 26.6667 19.9999 26.6667C19.5579 26.6667 19.134 26.4911 18.8214 26.1786C18.5089 25.866 18.3333 25.4421 18.3333 25V21.6667H14.9999C14.5579 21.6667 14.134 21.4911 13.8214 21.1786C13.5089 20.866 13.3333 20.4421 13.3333 20C13.3333 19.558 13.5089 19.1341 13.8214 18.8215C14.134 18.509 14.5579 18.3334 14.9999 18.3334H18.3333V15C18.3333 14.558 18.5089 14.1341 18.8214 13.8215C19.134 13.509 19.5579 13.3334 19.9999 13.3334C20.442 13.3334 20.8659 13.509 21.1784 13.8215C21.491 14.1341 21.6666 14.558 21.6666 15V18.3334H24.9999C25.442 18.3334 25.8659 18.509 26.1784 18.8215C26.491 19.1341 26.6666 19.558 26.6666 20C26.6666 20.4421 26.491 20.866 26.1784 21.1786C25.8659 21.4911 25.442 21.6667 24.9999 21.6667Z" fill="#3C6255"/>
</g>
<defs>
<clipPath id="clip0_53_983">
<rect width="40" height="40" fill="white"/>
</clipPath>
</defs>
</svg>
