<svg width="40" height="40" viewBox="0 0 40 40" fill="none" xmlns="http://www.w3.org/2000/svg">
<path d="M15 3.75C14.3188 3.75 13.75 4.31875 13.75 5H8.125C7.0975 5 6.25 5.8475 6.25 6.875V35.625C6.25 36.6525 7.0975 37.5 8.125 37.5H30.625C31.6525 37.5 32.5 36.6525 32.5 35.625V6.875C32.5 5.8475 31.6525 5 30.625 5H25C25 4.31875 24.4312 3.75 23.75 3.75H15ZM15 5H23.75V7.515H15V5ZM8.125 6.25H8.79125C8.56052 6.59284 8.43735 6.99674 8.4375 7.41V26.0525C8.425 26.8975 9.7 26.8975 9.6875 26.0525V7.41C9.6875 6.93 10.0538 6.5625 10.535 6.5625H13.75V7.515C13.75 8.19625 14.3188 8.765 15 8.765H23.75C24.4312 8.765 25 8.19625 25 7.515V6.5625H28.215C28.6963 6.5625 29.0625 6.93 29.0625 7.41V27.7662H26.7412C25.7987 27.7662 25.155 28.325 24.895 28.8375C24.635 29.3512 24.6437 29.8463 24.6437 29.8463V32.1838H10.535C10.423 32.186 10.3117 32.1655 10.2078 32.1236C10.1039 32.0817 10.0095 32.0193 9.93035 31.94C9.85119 31.8607 9.78887 31.7663 9.74714 31.6623C9.7054 31.5583 9.68512 31.447 9.6875 31.335V28.5763C9.7 27.7313 8.425 27.7313 8.4375 28.5763V31.335C8.4375 32.4863 9.38375 33.4325 10.535 33.4325H25.2687L25.2812 33.43C25.3589 33.4288 25.4356 33.4131 25.5075 33.3838L25.51 33.3813C25.5845 33.3508 25.6524 33.3062 25.71 33.25L30.13 28.8325C30.1874 28.7744 30.2328 28.7056 30.2638 28.63L30.2662 28.625C30.2965 28.5508 30.3122 28.4714 30.3125 28.3912V7.41C30.3125 6.98125 30.1812 6.5825 29.9587 6.25H30.625C30.9825 6.25 31.25 6.5175 31.25 6.875V35.625C31.25 35.9825 30.9825 36.25 30.625 36.25H8.125C8.04236 36.2521 7.96017 36.2373 7.88341 36.2066C7.80665 36.1759 7.73693 36.13 7.67848 36.0715C7.62002 36.0131 7.57406 35.9434 7.54338 35.8666C7.5127 35.7898 7.49794 35.7076 7.5 35.625V6.875C7.5 6.5175 7.7675 6.25 8.125 6.25ZM11.2213 9.97375V17.5H18.75V9.97375H11.2213ZM20 10V11.25H28.125V10H20ZM12.4713 11.2238H17.5V16.25H12.4713V11.2238ZM13.6213 11.875C13.4555 11.875 13.2965 11.9408 13.1793 12.0581C13.0621 12.1753 12.9963 12.3342 12.9963 12.5C12.9963 12.6658 13.0621 12.8247 13.1793 12.9419C13.2965 13.0592 13.4555 13.125 13.6213 13.125C13.787 13.125 13.946 13.0592 14.0632 12.9419C14.1804 12.8247 14.2463 12.6658 14.2463 12.5C14.2463 12.3342 14.1804 12.1753 14.0632 12.0581C13.946 11.9408 13.787 11.875 13.6213 11.875ZM15.7025 12.5L14.87 14.165L14.4525 13.3325L13.62 15H16.9525L15.7025 12.5ZM20 12.5V13.75H28.125V12.5H20ZM20 15V16.25H28.125V15H20ZM11.25 18.75V20H28.125V18.75H11.25ZM11.25 21.25V22.5H28.125V21.25H11.25ZM11.25 23.75V25H19.6875V23.75H11.25ZM26.7412 29.0162H28.1787L27.0362 30.1562L25.8937 31.2987V29.8463C25.8937 29.8463 25.9025 29.6162 26.0112 29.4012C26.1187 29.1887 26.21 29.0162 26.7412 29.0162Z" fill="#3C6255"/>
</svg>
