<svg width="41" height="41" viewBox="0 0 41 41" fill="none" xmlns="http://www.w3.org/2000/svg">
<g clip-path="url(#clip0_21_61)">
<path fill-rule="evenodd" clip-rule="evenodd" d="M20.5 24.5999C28.2592 24.5999 34.7639 29.1386 36.4572 36.8999H4.54281C6.23611 29.1386 12.7407 24.5999 20.5 24.5999ZM12.3 12.2999C12.3 7.77755 15.9777 4.09985 20.5 4.09985C25.0223 4.09985 28.7 7.77755 28.7 12.2999C28.7 16.8222 25.0223 20.4999 20.5 20.4999C15.9777 20.4999 12.3 16.8222 12.3 12.2999ZM28.2039 21.8794C29.6392 20.7295 30.7976 19.2715 31.5931 17.6133C32.3887 15.9551 32.8012 14.1391 32.8 12.2999C32.8015 10.2202 32.2757 8.17428 31.2717 6.35305C30.2677 4.53182 28.8183 2.99468 27.0591 1.88569C25.2998 0.776707 23.2881 0.131992 21.212 0.0116133C19.1359 -0.108765 17.0631 0.299294 15.1874 1.19752C13.3118 2.09575 11.6945 3.45488 10.4868 5.14787C9.27906 6.84087 8.52025 8.81235 8.28139 10.8782C8.04253 12.9441 8.33136 15.0367 9.1209 16.9607C9.91044 18.8846 11.1749 20.5769 12.7961 21.8794C5.29516 24.6982 0 31.6621 0 40.9999H41C41 31.6621 35.7048 24.6982 28.2039 21.8794Z" fill="black"/>
</g>
<defs>
<clipPath id="clip0_21_61">
<rect width="41" height="41" fill="white"/>
</clipPath>
</defs>
</svg>
