<svg width="34" height="35" viewBox="0 0 34 35" fill="none" xmlns="http://www.w3.org/2000/svg">
<path d="M16.0921 1.83286C18.024 1.83058 19.9405 2.18763 21.7494 2.88684L19.6342 5.08324C16.7871 4.28035 13.7625 4.46792 11.0294 5.61688C8.29637 6.76584 6.0075 8.81198 4.51776 11.438C3.02802 14.0641 2.42065 17.1233 2.78983 20.1413C3.15902 23.1593 4.48412 25.9674 6.55968 28.1303C8.63523 30.2931 11.3453 31.6899 14.2695 32.1038C17.1938 32.5178 20.1689 31.926 22.7335 30.42C25.2981 28.9141 27.309 26.5782 28.4542 23.7746C29.5994 20.971 29.8151 17.8564 29.0677 14.9136L31.2026 12.6969C31.8537 14.5291 32.186 16.4653 32.1842 18.4164C32.1842 21.6963 31.2404 24.9026 29.4722 27.6298C27.704 30.3569 25.1907 32.4825 22.2503 33.7376C19.3098 34.9928 16.0743 35.3212 12.9527 34.6813C9.83113 34.0415 6.96379 32.462 4.71327 30.1428C2.46275 27.8235 0.930129 24.8686 0.309212 21.6517C-0.311705 18.4348 0.00697237 15.1004 1.22494 12.0702C2.44292 9.03992 4.50548 6.44992 7.15181 4.6277C9.79815 2.80547 12.9094 1.83286 16.0921 1.83286ZM32.2915 1.22848L32.5525 1.47908C33.4768 2.43134 33.9973 3.72225 34 5.06914C34.0027 6.41603 33.4873 7.70913 32.5668 8.66529L21.2952 20.3733C20.9719 20.7086 20.5705 20.9529 20.1294 21.0827L12.5983 23.3104C12.4449 23.3556 12.2825 23.3577 12.128 23.3164C11.9735 23.2751 11.8326 23.192 11.7198 23.0756C11.607 22.9592 11.5266 22.8138 11.4867 22.6545C11.4469 22.4953 11.4492 22.3279 11.4933 22.1698L13.6568 14.394C13.7815 13.9476 14.0133 13.5407 14.3309 13.211L25.6115 1.49198C26.4856 0.584494 27.6612 0.0526039 28.9011 0.00369762C30.1409 -0.0452087 31.3526 0.392512 32.2915 1.22848ZM27.5157 3.43962L16.2334 15.1587L14.9603 19.7357L19.391 18.4275L30.6626 6.71764C31.0532 6.31166 31.2852 5.77171 31.3142 5.20077C31.3432 4.62983 31.1673 4.06786 30.8199 3.62204L30.6501 3.42488C30.2327 2.99845 29.6681 2.76027 29.0803 2.76268C28.4926 2.7651 27.9298 3.00977 27.5157 3.43962Z" fill="black"/>
</svg>
