<svg width="22" height="22" viewBox="0 0 22 22" fill="none" xmlns="http://www.w3.org/2000/svg">
<path d="M10.9999 17.8438L5.81242 20.9688C5.58326 21.1146 5.34367 21.1771 5.09367 21.1562C4.84367 21.1354 4.62492 21.0521 4.43742 20.9063C4.24992 20.7604 4.10409 20.5779 3.99992 20.3588C3.89576 20.1396 3.87492 19.895 3.93742 19.625L5.31242 13.7188L0.718673 9.75C0.51034 9.5625 0.38034 9.34875 0.328673 9.10875C0.277006 8.86875 0.292423 8.63458 0.374923 8.40625C0.458256 8.17708 0.583256 7.98958 0.749923 7.84375C0.916589 7.69792 1.14576 7.60417 1.43742 7.5625L7.49992 7.03125L9.84367 1.46875C9.94784 1.21875 10.1095 1.03125 10.3287 0.90625C10.5478 0.78125 10.7716 0.71875 10.9999 0.71875C11.2291 0.71875 11.4528 0.78125 11.6712 0.90625C11.8895 1.03125 12.0512 1.21875 12.1562 1.46875L14.4999 7.03125L20.5624 7.5625C20.8541 7.60417 21.0833 7.69792 21.2499 7.84375C21.4166 7.98958 21.5416 8.17708 21.6249 8.40625C21.7083 8.63542 21.7241 8.87 21.6724 9.11C21.6208 9.35 21.4903 9.56333 21.2812 9.75L16.6874 13.7188L18.0624 19.625C18.1249 19.8958 18.1041 20.1408 17.9999 20.36C17.8958 20.5792 17.7499 20.7613 17.5624 20.9063C17.3749 21.0521 17.1562 21.1354 16.9062 21.1562C16.6562 21.1771 16.4166 21.1146 16.1874 20.9688L10.9999 17.8438Z" fill="#FBE106"/>
</svg>
